<svg width="40" height="40" viewBox="0 0 40 40" fill="none" xmlns="http://www.w3.org/2000/svg">
<circle cx="20" cy="20" r="20" fill="#EBEBEB"/>
<path d="M29.2897 21.7681L25.8125 19.6812V17.75C25.8127 17.651 25.7868 17.5538 25.7375 17.468C25.6881 17.3823 25.617 17.311 25.5312 17.2616L20.5625 14.4237V12.3125H22.25C22.3992 12.3125 22.5423 12.2532 22.6477 12.1477C22.7532 12.0423 22.8125 11.8992 22.8125 11.75C22.8125 11.6008 22.7532 11.4577 22.6477 11.3523C22.5423 11.2468 22.3992 11.1875 22.25 11.1875H20.5625V9.5C20.5625 9.35082 20.5032 9.20774 20.3977 9.10225C20.2923 8.99676 20.1492 8.9375 20 8.9375C19.8508 8.9375 19.7077 8.99676 19.6023 9.10225C19.4968 9.20774 19.4375 9.35082 19.4375 9.5V11.1875H17.75C17.6008 11.1875 17.4577 11.2468 17.3523 11.3523C17.2468 11.4577 17.1875 11.6008 17.1875 11.75C17.1875 11.8992 17.2468 12.0423 17.3523 12.1477C17.4577 12.2532 17.6008 12.3125 17.75 12.3125H19.4375V14.4237L14.4688 17.2616C14.383 17.311 14.3119 17.3823 14.2625 17.468C14.2132 17.5538 14.1873 17.651 14.1875 17.75V19.6812L10.7103 21.7681C10.6271 21.8181 10.5583 21.8887 10.5105 21.9732C10.4627 22.0576 10.4376 22.153 10.4375 22.25V28.25C10.4375 28.3992 10.4968 28.5423 10.6023 28.6477C10.7077 28.7532 10.8508 28.8125 11 28.8125H18.5C18.6492 28.8125 18.7923 28.7532 18.8977 28.6477C19.0032 28.5423 19.0625 28.3992 19.0625 28.25V23.75C19.0625 23.5014 19.1613 23.2629 19.3371 23.0871C19.5129 22.9113 19.7514 22.8125 20 22.8125C20.2486 22.8125 20.4871 22.9113 20.6629 23.0871C20.8387 23.2629 20.9375 23.5014 20.9375 23.75V28.25C20.9375 28.3992 20.9968 28.5423 21.1023 28.6477C21.2077 28.7532 21.3508 28.8125 21.5 28.8125H29C29.1492 28.8125 29.2923 28.7532 29.3977 28.6477C29.5032 28.5423 29.5625 28.3992 29.5625 28.25V22.25C29.5624 22.153 29.5373 22.0576 29.4895 21.9732C29.4417 21.8887 29.3729 21.8181 29.2897 21.7681ZM11.5625 22.5687L14.1875 20.9938V27.6875H11.5625V22.5687ZM20 21.6875C19.453 21.6875 18.9284 21.9048 18.5416 22.2916C18.1548 22.6784 17.9375 23.203 17.9375 23.75V27.6875H15.3125V18.0763L20 15.3978L24.6875 18.0763V27.6875H22.0625V23.75C22.0625 23.203 21.8452 22.6784 21.4584 22.2916C21.0716 21.9048 20.547 21.6875 20 21.6875ZM28.4375 27.6875H25.8125V20.9938L28.4375 22.5687V27.6875Z" fill="black"/>
</svg>
