<svg width="20" height="20" viewBox="0 0 20 20" fill="none" xmlns="http://www.w3.org/2000/svg">
<path d="M13.3335 5.83333C13.3335 5.61232 13.4213 5.40036 13.5776 5.24408C13.7339 5.0878 13.9458 5 14.1668 5C14.3878 5 14.5998 5.0878 14.7561 5.24408C14.9124 5.40036 15.0002 5.61232 15.0002 5.83333C15.0002 6.05435 14.9124 6.26631 14.7561 6.42259C14.5998 6.57887 14.3878 6.66667 14.1668 6.66667C13.9458 6.66667 13.7339 6.57887 13.5776 6.42259C13.4213 6.26631 13.3335 6.05435 13.3335 5.83333Z" fill="white"/>
<path fill-rule="evenodd" clip-rule="evenodd" d="M9.99984 6.04166C8.95002 6.04166 7.9432 6.45869 7.20087 7.20103C6.45854 7.94336 6.0415 8.95017 6.0415 9.99999C6.0415 11.0498 6.45854 12.0566 7.20087 12.799C7.9432 13.5413 8.95002 13.9583 9.99984 13.9583C11.0497 13.9583 12.0565 13.5413 12.7988 12.799C13.5411 12.0566 13.9582 11.0498 13.9582 9.99999C13.9582 8.95017 13.5411 7.94336 12.7988 7.20103C12.0565 6.45869 11.0497 6.04166 9.99984 6.04166ZM7.2915 9.99999C7.2915 9.2817 7.57685 8.59282 8.08476 8.08491C8.59267 7.577 9.28154 7.29166 9.99984 7.29166C10.7181 7.29166 11.407 7.577 11.9149 8.08491C12.4228 8.59282 12.7082 9.2817 12.7082 9.99999C12.7082 10.7183 12.4228 11.4072 11.9149 11.9151C11.407 12.423 10.7181 12.7083 9.99984 12.7083C9.28154 12.7083 8.59267 12.423 8.08476 11.9151C7.57685 11.4072 7.2915 10.7183 7.2915 9.99999Z" fill="white"/>
<path fill-rule="evenodd" clip-rule="evenodd" d="M14.3818 2.36084C11.4696 2.038 8.53065 2.038 5.61846 2.36084C3.94179 2.54834 2.58763 3.86917 2.39096 5.55417C2.04546 8.50799 2.04546 11.492 2.39096 14.4458C2.58763 16.1308 3.94096 17.4517 5.61846 17.6392C8.53067 17.9617 11.4696 17.9617 14.3818 17.6392C16.0585 17.4517 17.4126 16.1308 17.6093 14.4458C17.9549 11.492 17.9549 8.50799 17.6093 5.55417C17.4126 3.86917 16.0593 2.54834 14.3818 2.36084ZM5.75679 3.60251C8.57705 3.2899 11.4232 3.2899 14.2435 3.60251C15.3518 3.72751 16.2393 4.60167 16.3685 5.70001C16.7026 8.55694 16.7026 11.4431 16.3685 14.3C16.3017 14.8375 16.0556 15.3369 15.67 15.7173C15.2844 16.0977 14.7818 16.3371 14.2435 16.3967C11.4232 16.7093 8.57705 16.7093 5.75679 16.3967C5.21841 16.3371 4.71584 16.0977 4.33026 15.7173C3.94468 15.3369 3.69861 14.8375 3.63179 14.3C3.29767 11.4431 3.29767 8.55694 3.63179 5.70001C3.69861 5.16247 3.94468 4.66316 4.33026 4.28272C4.71584 3.90228 5.21841 3.6621 5.75679 3.60251Z" fill="white"/>
</svg>
