<svg width="40" height="40" viewBox="0 0 40 40" fill="none" xmlns="http://www.w3.org/2000/svg">
<circle cx="20" cy="20" r="20" fill="black" fill-opacity="0.08"/>
<path d="M19.375 11.8751C18.3469 11.8751 17.5 12.722 17.5 13.7501L17.51 13.6476L16.8944 17.3414L15.7131 20.5739C15.6906 20.6032 15.6637 20.6251 15.625 20.6251H15V20.0001H11.875V28.1251H15V26.2501H17.4537C18.4812 26.2501 19.4069 25.752 20 24.9782C20.5938 25.752 21.5187 26.2501 22.5462 26.2501H25V28.1251H28.125V20.0001H25V20.6251H24.375C24.3356 20.6251 24.3094 20.6032 24.2875 20.5739L23.1056 17.3414L22.49 13.6476L22.5 13.7501C22.5 12.722 21.6531 11.8751 20.625 11.8751C20.4125 11.8751 20.195 11.9164 20 12.017C19.8058 11.9209 19.5916 11.8723 19.375 11.8751ZM19.3531 13.1351C19.3656 13.2251 19.375 13.4301 19.375 13.7501V23.3989C19.2931 23.8486 19.0559 24.2553 18.7048 24.5479C18.3536 24.8406 17.9109 25.0006 17.4537 25.0001H15V21.8751H15.625C15.8668 21.8748 16.1041 21.8104 16.3129 21.6885C16.5217 21.5667 16.6945 21.3917 16.8138 21.1814L16.8388 21.1351L18.1056 17.6589L18.75 13.8014V13.7501C18.75 13.4064 19.0138 13.147 19.3531 13.1351ZM20.6469 13.1351C20.9862 13.1476 21.25 13.4057 21.25 13.7501V13.8014L21.8944 17.6589L23.1619 21.1351L23.1862 21.182C23.3056 21.3922 23.4785 21.567 23.6872 21.6887C23.896 21.8105 24.1333 21.8748 24.375 21.8751H25V25.0001H22.5462C22.0891 25.0006 21.6462 24.8405 21.2951 24.5477C20.9439 24.2549 20.7067 23.8481 20.625 23.3982V13.7501C20.625 13.4301 20.635 13.2251 20.6469 13.1351ZM13.125 21.2501H13.75V26.8751H13.125V21.2501ZM26.25 21.2501H26.875V26.8751H26.25V21.2501Z" fill="black"/>
</svg>
