<svg width="20" height="20" viewBox="0 0 20 20" fill="none" xmlns="http://www.w3.org/2000/svg">
<path d="M12.3265 8.97918L9.26984 7.21918C9.09037 7.11585 8.88689 7.06154 8.6798 7.0617C8.47272 7.06185 8.26931 7.11646 8.09 7.22004C7.91068 7.32363 7.76176 7.47255 7.65818 7.65187C7.55459 7.83119 7.49999 8.03459 7.49984 8.24168V11.76C7.49734 12.1817 7.72234 12.5717 8.08817 12.78C8.26753 12.8848 8.47147 12.9401 8.6792 12.9404C8.88692 12.9407 9.09101 12.886 9.27067 12.7817L12.3265 11.0217C12.506 10.9185 12.6551 10.7698 12.7588 10.5905C12.8625 10.4113 12.9171 10.2079 12.9171 10.0008C12.9171 9.79378 12.8625 9.59038 12.7588 9.41115C12.6551 9.23192 12.506 9.08321 12.3265 8.98001M11.9098 10.2983L8.85484 12.0592C8.8019 12.0902 8.74163 12.1066 8.68025 12.1066C8.61888 12.1066 8.55861 12.0902 8.50567 12.0592C8.45257 12.0291 8.40853 11.9853 8.37818 11.9324C8.34783 11.8795 8.33228 11.8194 8.33317 11.7583V8.24168C8.33258 8.18095 8.34828 8.12117 8.37861 8.06856C8.40895 8.01595 8.45282 7.97243 8.50567 7.94251C8.55815 7.91057 8.6184 7.89368 8.67984 7.89368C8.74127 7.89368 8.80152 7.91057 8.854 7.94251L11.9098 9.70334C11.9625 9.73311 12.0064 9.77634 12.0369 9.82861C12.0674 9.88088 12.0835 9.94032 12.0835 10.0008C12.0835 10.0614 12.0674 10.1208 12.0369 10.1731C12.0064 10.2254 11.9625 10.2686 11.9098 10.2983ZM15.8332 3.33334H4.1665C3.50367 3.33401 2.86817 3.59761 2.39947 4.06631C1.93077 4.535 1.66717 5.17051 1.6665 5.83334V14.1667C1.66717 14.8295 1.93077 15.465 2.39947 15.9337C2.86817 16.4024 3.50367 16.666 4.1665 16.6667H15.8332C16.496 16.666 17.1315 16.4024 17.6002 15.9337C18.0689 15.465 18.3325 14.8295 18.3332 14.1667V5.83334C18.3325 5.17051 18.0689 4.535 17.6002 4.06631C17.1315 3.59761 16.496 3.33401 15.8332 3.33334ZM17.4998 14.1667C17.4992 14.6085 17.3234 15.032 17.011 15.3445C16.6985 15.6569 16.275 15.8327 15.8332 15.8333H4.1665C3.72468 15.8327 3.30114 15.6569 2.98872 15.3445C2.67631 15.032 2.5005 14.6085 2.49984 14.1667V5.83334C2.5005 5.39152 2.67631 4.96798 2.98872 4.65556C3.30114 4.34315 3.72468 4.16734 4.1665 4.16668H15.8332C16.275 4.16734 16.6985 4.34315 17.011 4.65556C17.3234 4.96798 17.4992 5.39152 17.4998 5.83334V14.1667Z" fill="white"/>
</svg>
